<svg xmlns="http://www.w3.org/2000/svg" id="_003-24-hours" width="48" height="48" data-name="003-24-hours" viewBox="0 0 48 48">
    <defs>
        <style>
            .cls-1{fill:#00024d}
        </style>
    </defs>
    <g id="Group_41" data-name="Group 41">
        <g id="Group_40" data-name="Group 40">
            <path id="Path_79" d="M24 0a24 24 0 1 0 24 24A24 24 0 0 0 24 0zm0 46.5A22.5 22.5 0 1 1 46.5 24 22.5 22.5 0 0 1 24 46.5z" class="cls-1" data-name="Path 79"/>
            <path id="Path_80" d="M250.48 37.212l1.806-1.806-1.062-1.062-3 3a.751.751 0 0 0 0 1.062l3 3 1.062-1.062-1.607-1.607a16.539 16.539 0 0 1 14.591 16.4h1.5a18.043 18.043 0 0 0-16.29-17.925z" class="cls-1" data-name="Path 80" transform="translate(-224.78 -31.121)"/>
            <path id="Path_81" d="M79.548 269.735l-1.062 1.065 1.607 1.607A16.539 16.539 0 0 1 65.5 256H64a18.043 18.043 0 0 0 16.293 17.936l-1.806 1.806 1.062 1.062 3-3a.751.751 0 0 0 0-1.062z" class="cls-1" data-name="Path 81" transform="translate(-57.993 -232.027)"/>
            <path id="Path_82" d="M145.5 197.512h7.508v-1.5H145.5v-3.754h6.069a1.471 1.471 0 0 0 1.439-1.5V185.5v-.062a1.471 1.471 0 0 0-1.5-1.439h-6.069A1.471 1.471 0 0 0 144 185.5v3.754h1.5V185.5h6.007v5.256h-6.069a1.471 1.471 0 0 0-1.439 1.5v3.816a1.471 1.471 0 0 0 1.501 1.44z" class="cls-1" data-name="Path 82" transform="translate(-130.5 -166.754)"/>
            <path id="Path_83" d="M270.758 184h-1.5v6.758H265.5V184H264v7.508a.751.751 0 0 0 .751.751h4.505v5.256h1.5v-5.256h2.253v-1.5h-2.253z" class="cls-1" data-name="Path 83" transform="translate(-239.256 -166.758)"/>
        </g>
    </g>
</svg>
